<svg xmlns="http://www.w3.org/2000/svg" xmlns:xlink="http://www.w3.org/1999/xlink" version="1.1" width="1000" height="1000" viewBox="0 0 1000 1000" xml:space="preserve">
<desc>Created with Fabric.js 3.5.0</desc>
<defs>
</defs>
<rect x="0" y="0" width="100%" height="100%" fill="#ffffff"/>
<g transform="matrix(1.0836 0 0 1.1089 533.7497 500.0028)" id="955611">
<g style="" vector-effect="non-scaling-stroke">
		<g transform="matrix(0.1333 0 0 -0.1333 -101.6984 -0.2346)">
<path style="stroke: none; stroke-width: 1; stroke-dasharray: none; stroke-linecap: butt; stroke-dashoffset: 0; stroke-linejoin: miter; stroke-miterlimit: 4; is-custom-font: none; font-file-url: none; fill: rgb(232,38,19); fill-rule: nonzero; opacity: 1;" transform=" translate(-4237.9153, -5000.9352)" d="M 4698 8289 c -224 -15 -445 -52 -656 -110 c -111 -31 -113 -32 -108 -58 c 3 -14 3 -20 0 -13 c -3 6 -11 9 -17 5 c -6 -4 -8 0 -4 10 c 9 23 3 22 -104 -17 c -793 -288 -1430 -844 -1819 -1589 c -183 -351 -294 -717 -352 -1157 c -19 -148 -16 -606 6 -765 c 54 -400 152 -721 325 -1070 c 278 -558 702 -1017 1245 -1350 c 384 -235 813 -384 1301 -451 c 180 -25 615 -25 800 -1 c 531 71 993 241 1423 525 c 113 74 149 104 70 58 c -65 -38 -254 -120 -380 -165 c -738 -265 -1569 -231 -2274 93 c -1092 500 -1784 1573 -1784 2766 c 0 689 229 1345 662 1893 c 104 132 354 381 488 487 c 811 639 1874 825 2853 498 c 133 -44 341 -132 425 -179 c 85 -48 60 -25 -60 54 c -608 401 -1312 585 -2040 536 z" stroke-linecap="round"/>
</g>
		<g transform="matrix(0.1333 0 0 -0.1333 115.274 -290.5741)">
<path style="stroke: none; stroke-width: 1; stroke-dasharray: none; stroke-linecap: butt; stroke-dashoffset: 0; stroke-linejoin: miter; stroke-miterlimit: 4; is-custom-font: none; font-file-url: none; fill: rgb(232,38,19); fill-rule: nonzero; opacity: 1;" transform=" translate(-5865.081, -7179.1207)" d="M 5255 7913 c -480 -31 -958 -185 -1371 -442 c -154 -97 -160 -106 -24 -42 c 567 267 1187 327 1800 175 c 631 -157 1196 -551 1564 -1092 l 50 -72 l 349 0 c 295 0 348 2 344 14 c -11 29 -113 185 -180 276 c -366 496 -877 862 -1472 1053 c -325 104 -716 152 -1060 130 z" stroke-linecap="round"/>
</g>
		<g transform="matrix(0.1333 0 0 -0.1333 -129.8501 -0.2974)">
<path style="stroke: none; stroke-width: 1; stroke-dasharray: none; stroke-linecap: butt; stroke-dashoffset: 0; stroke-linejoin: miter; stroke-miterlimit: 4; is-custom-font: none; font-file-url: none; fill: rgb(232,38,19); fill-rule: nonzero; opacity: 1;" transform=" translate(-4026.5081, -5001.9113)" d="M 3035 6268 c -99 -10 -265 -44 -275 -55 c -30 -36 -144 -358 -184 -523 c -50 -206 -85 -503 -86 -723 c 0 -65 1 -68 33 -87 c 50 -31 192 -80 297 -102 c 91 -20 136 -21 965 -27 c 925 -7 909 -6 963 -55 c 37 -33 52 -70 52 -131 c 0 -79 -27 -127 -87 -156 l -48 -24 l -1037 -3 c -1204 -3 -1073 13 -1038 -125 c 30 -118 95 -303 149 -426 l 47 -106 l 949 0 c 726 0 971 3 1038 13 c 149 22 276 60 396 118 c 98 48 125 67 190 132 c 140 141 202 309 204 552 c 1 226 -44 353 -167 476 c -114 113 -250 176 -466 216 c -110 21 -153 22 -985 27 l -871 6 l -48 25 c -62 32 -86 74 -86 151 c 0 98 52 149 170 168 c 42 7 389 11 975 11 l 910 1 l 245 321 c 135 177 247 325 248 330 c 5 11 -2341 8 -2453 -4 z" stroke-linecap="round"/>
</g>
		<g transform="matrix(0.1333 0 0 -0.1333 234.018 -0.0427)">
<path style="stroke: none; stroke-width: 1; stroke-dasharray: none; stroke-linecap: butt; stroke-dashoffset: 0; stroke-linejoin: miter; stroke-miterlimit: 4; is-custom-font: none; font-file-url: none; fill: rgb(232,38,19); fill-rule: nonzero; opacity: 1;" transform=" translate(-6755.5371, -5000)" d="M 5401 5953 l -251 -328 l 0 -162 c 0 -121 3 -163 12 -163 c 7 0 53 -20 104 -45 c 164 -79 273 -185 344 -330 c 62 -127 74 -187 74 -365 c 1 -175 -16 -275 -65 -399 c -64 -160 -193 -305 -350 -393 l -84 -48 l 378 0 l 378 0 l -3 549 c -3 549 -3 550 17 533 c 11 -9 56 -51 100 -92 c 75 -71 249 -223 870 -764 l 260 -226 l 595 0 c 510 0 592 2 580 14 c -31 29 -1277 1021 -1388 1105 c -65 48 -163 120 -219 160 c -57 40 -103 74 -103 76 c 0 1 30 22 68 46 c 145 94 290 200 907 662 c 352 264 644 484 649 488 c 6 5 -238 9 -560 9 l -571 0 l -464 -391 c -255 -215 -509 -433 -564 -483 c -55 -51 -118 -108 -140 -128 l -40 -36 l 3 519 l 3 519 l -145 0 l -145 0 l -250 -327 z" stroke-linecap="round"/>
</g>
		<g transform="matrix(0.1333 0 0 -0.1333 115.4604 290.2505)">
<path style="stroke: none; stroke-width: 1; stroke-dasharray: none; stroke-linecap: butt; stroke-dashoffset: 0; stroke-linejoin: miter; stroke-miterlimit: 4; is-custom-font: none; font-file-url: none; fill: rgb(232,38,19); fill-rule: nonzero; opacity: 1;" transform=" translate(-5866.4795, -2822.9365)" d="M 7224 3488 c -265 -390 -635 -706 -1064 -912 c -579 -276 -1220 -336 -1847 -171 c -162 43 -291 90 -453 166 c -136 64 -130 55 24 -42 c 365 -227 748 -364 1196 -426 c 172 -23 547 -23 720 1 c 352 48 619 129 935 286 c 423 208 760 490 1046 873 c 80 107 189 275 189 291 c 0 3 -157 6 -348 6 l -348 0 l -50 -72 z" stroke-linecap="round"/>
</g>
		<g transform="matrix(0.1333 0 0 -0.1333 -636.5683 359.9167)">
<path style="stroke: none; stroke-width: 1; stroke-dasharray: none; stroke-linecap: butt; stroke-dashoffset: 0; stroke-linejoin: miter; stroke-miterlimit: 4; is-custom-font: none; font-file-url: none; fill: rgb(232,38,19); fill-rule: nonzero; opacity: 1;" transform=" translate(-225.7538, -2300.6142)" d="M 226 2331 c -3 -4 -17 -6 -30 -4 c -20 4 -26 0 -31 -20 c -7 -26 0 -47 14 -47 c 5 0 6 11 3 25 c -3 18 0 25 12 25 c 9 0 16 -7 16 -15 c 0 -22 17 -18 23 6 c 8 29 32 18 32 -14 c -1 -30 12 -36 22 -11 c 14 37 -41 87 -61 55 z" stroke-linecap="round"/>
</g>
		<g transform="matrix(0.1333 0 0 -0.1333 -636.8092 373.7524)">
<path style="stroke: none; stroke-width: 1; stroke-dasharray: none; stroke-linecap: butt; stroke-dashoffset: 0; stroke-linejoin: miter; stroke-miterlimit: 4; is-custom-font: none; font-file-url: none; fill: rgb(232,38,19); fill-rule: nonzero; opacity: 1;" transform=" translate(-223.9475, -2196.846)" d="M 235 2230 c -4 -6 -16 -8 -26 -5 c -35 11 -69 -42 -39 -60 c 20 -12 93 -15 107 -4 c 18 15 16 44 -3 63 c -18 19 -30 20 -39 6 z m -27 -37 c -4 -22 -22 -20 -26 1 c -2 10 3 16 13 16 c 10 0 15 -7 13 -17 z m 60 0 c -2 -10 -10 -18 -18 -18 c -8 0 -16 8 -18 18 c -2 12 3 17 18 17 c 15 0 20 -5 18 -17 z" stroke-linecap="round"/>
</g>
		<g transform="matrix(0.1333 0 0 -0.1333 -636.6689 387.0533)">
<path style="stroke: none; stroke-width: 1; stroke-dasharray: none; stroke-linecap: butt; stroke-dashoffset: 0; stroke-linejoin: miter; stroke-miterlimit: 4; is-custom-font: none; font-file-url: none; fill: rgb(232,38,19); fill-rule: nonzero; opacity: 1;" transform=" translate(-225, -2097.09)" d="M 160 2101 c 0 -22 5 -43 10 -46 c 6 -4 10 7 10 25 c 0 28 2 31 23 24 c 12 -3 34 -13 49 -20 c 31 -16 38 -17 38 -5 c 0 7 -108 61 -124 61 c -3 0 -6 -18 -6 -39 z" stroke-linecap="round"/>
</g>
		<g transform="matrix(0.1333 0 0 -0.1333 -636.6365 400.6321)">
<path style="stroke: none; stroke-width: 1; stroke-dasharray: none; stroke-linecap: butt; stroke-dashoffset: 0; stroke-linejoin: miter; stroke-miterlimit: 4; is-custom-font: none; font-file-url: none; fill: rgb(232,38,19); fill-rule: nonzero; opacity: 1;" transform=" translate(-225.2427, -1995.2481)" d="M 176 2024 c -19 -18 -20 -28 -6 -55 c 19 -35 70 -17 70 26 c 1 18 3 17 18 -7 c 17 -29 32 -36 32 -17 c 0 18 -57 69 -79 69 c -11 0 -27 -7 -35 -16 z m 41 -38 c -4 -9 -11 -16 -17 -16 c -17 0 -24 31 -9 41 c 18 11 34 -5 26 -25 z" stroke-linecap="round"/>
</g>
		<g transform="matrix(0.1333 0 0 -0.1333 -636.3884 415.3787)">
<path style="stroke: none; stroke-width: 1; stroke-dasharray: none; stroke-linecap: butt; stroke-dashoffset: 0; stroke-linejoin: miter; stroke-miterlimit: 4; is-custom-font: none; font-file-url: none; fill: rgb(232,38,19); fill-rule: nonzero; opacity: 1;" transform=" translate(-227.103, -1884.6486)" d="M 222 1918 c -5 -7 -12 -22 -14 -33 c -4 -18 -6 -17 -18 8 c -14 30 -33 38 -23 10 c 11 -31 46 -63 69 -63 c 23 0 54 24 54 41 c 0 39 -46 64 -68 37 z m 43 -34 c 0 -10 -8 -20 -17 -22 c -18 -3 -26 27 -11 42 c 12 11 28 0 28 -20 z" stroke-linecap="round"/>
</g>
		<g transform="matrix(0.1333 0 0 -0.1333 -636.3884 430.0453)">
<path style="stroke: none; stroke-width: 1; stroke-dasharray: none; stroke-linecap: butt; stroke-dashoffset: 0; stroke-linejoin: miter; stroke-miterlimit: 4; is-custom-font: none; font-file-url: none; fill: rgb(232,38,19); fill-rule: nonzero; opacity: 1;" transform=" translate(-227.103, -1774.6486)" d="M 222 1808 c -5 -7 -12 -22 -14 -33 c -4 -18 -6 -17 -18 8 c -14 30 -33 38 -23 10 c 11 -31 46 -63 69 -63 c 23 0 54 24 54 41 c 0 39 -46 64 -68 37 z m 43 -34 c 0 -10 -8 -20 -17 -22 c -18 -3 -26 27 -11 42 c 12 11 28 0 28 -20 z" stroke-linecap="round"/>
</g>
		<g transform="matrix(0.1333 0 0 -0.1333 -636.8258 444.1088)">
<path style="stroke: none; stroke-width: 1; stroke-dasharray: none; stroke-linecap: butt; stroke-dashoffset: 0; stroke-linejoin: miter; stroke-miterlimit: 4; is-custom-font: none; font-file-url: none; fill: rgb(232,38,19); fill-rule: nonzero; opacity: 1;" transform=" translate(-223.8225, -1669.1739)" d="M 160 1676 c 0 -24 5 -36 14 -36 c 8 0 20 -2 28 -5 c 8 -3 18 6 25 26 c 14 37 38 34 38 -4 c -1 -15 3 -27 7 -27 c 16 0 21 31 9 56 c -15 33 -51 29 -69 -9 c -14 -29 -32 -28 -32 3 c 0 10 -4 22 -10 25 c -6 4 -10 -8 -10 -29 z" stroke-linecap="round"/>
</g>
		<g transform="matrix(0.1333 0 0 -0.1333 -636.6689 456.6652)">
<path style="stroke: none; stroke-width: 1; stroke-dasharray: none; stroke-linecap: butt; stroke-dashoffset: 0; stroke-linejoin: miter; stroke-miterlimit: 4; is-custom-font: none; font-file-url: none; fill: rgb(232,38,19); fill-rule: nonzero; opacity: 1;" transform=" translate(-225, -1575)" d="M 160 1575 c 0 -25 5 -45 10 -45 c 6 0 10 14 10 31 c 0 27 3 30 23 23 c 12 -3 34 -13 49 -20 c 31 -16 38 -17 38 -5 c 0 7 -108 61 -124 61 c -3 0 -6 -20 -6 -45 z" stroke-linecap="round"/>
</g>
		<g transform="matrix(0.1333 0 0 -0.1333 -636.6689 468.5911)">
<path style="stroke: none; stroke-width: 1; stroke-dasharray: none; stroke-linecap: butt; stroke-dashoffset: 0; stroke-linejoin: miter; stroke-miterlimit: 4; is-custom-font: none; font-file-url: none; fill: rgb(232,38,19); fill-rule: nonzero; opacity: 1;" transform=" translate(-225, -1485.5611)" d="M 160 1502 c 0 -5 7 -17 15 -28 c 13 -17 14 -17 15 -1 c 0 14 9 17 50 17 c 28 0 50 5 50 10 c 0 6 -28 10 -65 10 c -36 0 -65 -4 -65 -8 z" stroke-linecap="round"/>
</g>
		<g transform="matrix(0.1333 0 0 -0.1333 -636.9281 478.0024)">
<path style="stroke: none; stroke-width: 1; stroke-dasharray: none; stroke-linecap: butt; stroke-dashoffset: 0; stroke-linejoin: miter; stroke-miterlimit: 4; is-custom-font: none; font-file-url: none; fill: rgb(232,38,19); fill-rule: nonzero; opacity: 1;" transform=" translate(-223.0527, -1414.9714)" d="M 196 1451 c -4 -6 -12 -9 -17 -6 c -5 4 -9 2 -9 -4 c 0 -5 6 -12 13 -15 c 9 -5 9 -7 0 -12 c -10 -4 -9 -9 2 -20 c 8 -9 20 -12 26 -8 c 6 3 14 1 18 -5 c 5 -8 15 -9 31 -3 c 19 7 21 10 7 15 c -23 9 -22 28 1 20 c 12 -4 11 0 -7 17 c -17 17 -25 20 -31 10 c -6 -9 -10 -8 -17 5 c -7 12 -12 14 -17 6 z m 39 -41 c -3 -5 -10 -10 -16 -10 c -5 0 -9 5 -9 10 c 0 6 7 10 16 10 c 8 0 12 -4 9 -10 z" stroke-linecap="round"/>
</g>
		<g transform="matrix(0.1333 0 0 -0.1333 -635.3365 495.9997)">
<path style="stroke: none; stroke-width: 1; stroke-dasharray: none; stroke-linecap: butt; stroke-dashoffset: 0; stroke-linejoin: miter; stroke-miterlimit: 4; is-custom-font: none; font-file-url: none; fill: rgb(232,38,19); fill-rule: nonzero; opacity: 1;" transform=" translate(-235, -1280)" d="M 140 1280 c 0 -6 38 -10 95 -10 c 57 0 95 4 95 10 c 0 6 -38 10 -95 10 c -57 0 -95 -4 -95 -10 z" stroke-linecap="round"/>
</g>
		<g transform="matrix(0.1333 0 0 -0.1333 -638.0025 511.932)">
<path style="stroke: none; stroke-width: 1; stroke-dasharray: none; stroke-linecap: butt; stroke-dashoffset: 0; stroke-linejoin: miter; stroke-miterlimit: 4; is-custom-font: none; font-file-url: none; fill: rgb(232,38,19); fill-rule: nonzero; opacity: 1;" transform=" translate(-215, -1160.5)" d="M 261 1189 c -22 -18 -25 -19 -42 -3 c -11 10 -22 14 -27 10 c -4 -4 4 -16 17 -27 l 23 -19 l -46 0 c -34 0 -46 -4 -46 -15 c 0 -12 15 -15 75 -15 c 60 0 75 3 75 15 c 0 9 -9 15 -22 15 l -23 0 l 24 19 c 13 10 22 23 20 29 c -2 6 -14 3 -28 -9 z" stroke-linecap="round"/>
</g>
		<g transform="matrix(0.1333 0 0 -0.1333 -634.6684 524.6643)">
<path style="stroke: none; stroke-width: 1; stroke-dasharray: none; stroke-linecap: butt; stroke-dashoffset: 0; stroke-linejoin: miter; stroke-miterlimit: 4; is-custom-font: none; font-file-url: none; fill: rgb(232,38,19); fill-rule: nonzero; opacity: 1;" transform=" translate(-240, -1065.0087)" d="M 190 1081 c 0 -27 27 -51 55 -51 c 24 0 45 25 45 54 c 0 25 -18 19 -22 -6 c -2 -17 -10 -23 -28 -23 c -18 0 -26 6 -28 23 c -4 27 -22 30 -22 3 z" stroke-linecap="round"/>
</g>
		<g transform="matrix(0.1333 0 0 -0.1333 -634.636 538.0544)">
<path style="stroke: none; stroke-width: 1; stroke-dasharray: none; stroke-linecap: butt; stroke-dashoffset: 0; stroke-linejoin: miter; stroke-miterlimit: 4; is-custom-font: none; font-file-url: none; fill: rgb(232,38,19); fill-rule: nonzero; opacity: 1;" transform=" translate(-240.2427, -964.5803)" d="M 206 994 c -19 -18 -20 -28 -6 -55 c 21 -39 90 -16 90 30 c 0 16 -30 41 -50 41 c -10 0 -26 -7 -34 -16 z m 59 -29 c 0 -22 -31 -33 -47 -17 c -17 17 -1 44 24 40 c 15 -2 23 -10 23 -23 z" stroke-linecap="round"/>
</g>
		<g transform="matrix(0.1333 0 0 -0.1333 -636.6106 549.299)">
<path style="stroke: none; stroke-width: 1; stroke-dasharray: none; stroke-linecap: butt; stroke-dashoffset: 0; stroke-linejoin: miter; stroke-miterlimit: 4; is-custom-font: none; font-file-url: none; fill: rgb(232,38,19); fill-rule: nonzero; opacity: 1;" transform=" translate(-225.4373, -880.25)" d="M 190 900 c 0 -5 -7 -10 -15 -10 c -8 0 -15 -4 -15 -10 c 0 -5 6 -10 14 -10 c 8 0 17 -6 20 -12 c 5 -10 7 -10 12 0 c 3 6 21 12 40 12 c 34 0 56 22 39 38 c -4 4 -10 1 -12 -5 c -5 -15 -63 -18 -63 -3 c 0 6 -4 10 -10 10 c -5 0 -10 -4 -10 -10 z" stroke-linecap="round"/>
</g>
		<g transform="matrix(0.1333 0 0 -0.1333 -637.4181 559.9795)">
<path style="stroke: none; stroke-width: 1; stroke-dasharray: none; stroke-linecap: butt; stroke-dashoffset: 0; stroke-linejoin: miter; stroke-miterlimit: 4; is-custom-font: none; font-file-url: none; fill: rgb(232,38,19); fill-rule: nonzero; opacity: 1;" transform=" translate(-219.3811, -800.1436)" d="M 212 810 c -19 -34 -35 -34 -40 -2 c -5 30 -22 28 -22 -2 c 0 -50 54 -61 77 -16 c 17 34 38 32 38 -3 c -1 -32 18 -31 23 2 c 8 53 -49 69 -76 21 z" stroke-linecap="round"/>
</g>
		<g transform="matrix(0.1333 0 0 -0.1333 -634.6394 579.9986)">
<path style="stroke: none; stroke-width: 1; stroke-dasharray: none; stroke-linecap: butt; stroke-dashoffset: 0; stroke-linejoin: miter; stroke-miterlimit: 4; is-custom-font: none; font-file-url: none; fill: rgb(232,38,19); fill-rule: nonzero; opacity: 1;" transform=" translate(-240.2165, -650)" d="M 200 675 c -22 -26 3 -65 40 -65 c 35 0 58 36 45 67 c -7 16 -9 15 -13 -7 c -6 -40 -22 -48 -22 -12 c 0 25 -4 32 -19 32 c -10 0 -24 -7 -31 -15 z m 30 -26 c 0 -11 -4 -17 -10 -14 c -5 3 -10 13 -10 21 c 0 8 5 14 10 14 c 6 0 10 -9 10 -21 z" stroke-linecap="round"/>
</g>
		<g transform="matrix(0.1333 0 0 -0.1333 -638.0686 594.1895)">
<path style="stroke: none; stroke-width: 1; stroke-dasharray: none; stroke-linecap: butt; stroke-dashoffset: 0; stroke-linejoin: miter; stroke-miterlimit: 4; is-custom-font: none; font-file-url: none; fill: rgb(232,38,19); fill-rule: nonzero; opacity: 1;" transform=" translate(-214.5046, -543.5674)" d="M 197 561 c -8 -22 -18 -31 -34 -31 c -14 0 -23 -6 -23 -15 c 0 -23 138 -22 147 2 c 10 26 -19 68 -50 71 c -24 3 -30 -2 -40 -27 z m 57 3 c 28 -11 18 -34 -14 -34 c -18 0 -30 5 -30 13 c 0 25 15 32 44 21 z" stroke-linecap="round"/>
</g>
		<g transform="matrix(0.1333 0 0 -0.1333 -634.636 608.7211)">
<path style="stroke: none; stroke-width: 1; stroke-dasharray: none; stroke-linecap: butt; stroke-dashoffset: 0; stroke-linejoin: miter; stroke-miterlimit: 4; is-custom-font: none; font-file-url: none; fill: rgb(232,38,19); fill-rule: nonzero; opacity: 1;" transform=" translate(-240.2427, -434.5803)" d="M 206 464 c -19 -18 -20 -28 -6 -55 c 21 -39 90 -16 90 30 c 0 16 -30 41 -50 41 c -10 0 -26 -7 -34 -16 z m 59 -29 c 0 -22 -31 -33 -47 -17 c -17 17 -1 44 24 40 c 15 -2 23 -10 23 -23 z" stroke-linecap="round"/>
</g>
		<g transform="matrix(0.1333 0 0 -0.1333 -637.9906 623.8994)">
<path style="stroke: none; stroke-width: 1; stroke-dasharray: none; stroke-linecap: butt; stroke-dashoffset: 0; stroke-linejoin: miter; stroke-miterlimit: 4; is-custom-font: none; font-file-url: none; fill: rgb(232,38,19); fill-rule: nonzero; opacity: 1;" transform=" translate(-215.0895, -320.7444)" d="M 140 350 c 0 -5 11 -10 25 -10 c 15 0 25 -6 25 -14 c 0 -45 73 -62 92 -22 c 20 45 6 56 -72 56 c -40 0 -70 -4 -70 -10 z m 128 -27 c -2 -12 -12 -18 -28 -18 c -16 0 -26 6 -28 18 c -3 13 3 17 28 17 c 25 0 31 -4 28 -17 z" stroke-linecap="round"/>
</g>
		<g transform="matrix(0.1333 0 0 -0.1333 -637.2046 638.0535)">
<path style="stroke: none; stroke-width: 1; stroke-dasharray: none; stroke-linecap: butt; stroke-dashoffset: 0; stroke-linejoin: miter; stroke-miterlimit: 4; is-custom-font: none; font-file-url: none; fill: rgb(232,38,19); fill-rule: nonzero; opacity: 1;" transform=" translate(-220.983, -214.5854)" d="M 220 246 c -36 -13 -66 -29 -68 -37 c -1 -9 20 -21 68 -35 c 38 -12 70 -17 70 -12 c 0 6 -9 12 -20 15 c -14 4 -20 14 -20 34 c 0 22 5 29 20 29 c 11 0 20 7 20 15 c 0 8 -1 15 -2 14 c -2 0 -32 -11 -68 -23 z m 8 -51 c -7 -7 -48 7 -48 15 c 0 15 45 16 48 2 c 2 -8 2 -15 0 -17 z" stroke-linecap="round"/>
</g>
</g>
</g>
</svg>